<svg xmlns="http://www.w3.org/2000/svg" version="1.1" xmlns:xlink="http://www.w3.org/1999/xlink" xmlns:svgjs="http://svgjs.dev/svgjs" width="2000" height="1247" viewBox="0 0 2000 1247"><g transform="matrix(1,0,0,1,-1.2121212121212466,0.504858299595071)"><svg viewBox="0 0 396 247" data-background-color="#ffffff" preserveAspectRatio="xMidYMid meet" height="1247" width="2000" xmlns="http://www.w3.org/2000/svg" xmlns:xlink="http://www.w3.org/1999/xlink"><g id="tight-bounds" transform="matrix(1,0,0,1,0.2400000000000091,-0.09999999999999432)"><svg viewBox="0 0 395.52 247.2" height="247.2" width="395.52"><g><svg></svg></g><g><svg viewBox="0 0 395.52 247.2" height="247.2" width="395.52"><g transform="matrix(1,0,0,1,39.55199999999999,104.14568551510456)"><svg viewBox="0 0 316.416 38.90862896979086" height="38.90862896979086" width="316.416"><g><svg viewBox="0 0 316.416 38.90862896979086" height="38.90862896979086" width="316.416"><g><svg viewBox="0 0 316.416 38.90862896979086" height="38.90862896979086" width="316.416"><g><svg viewBox="0 0 316.416 38.90862896979086" height="38.90862896979086" width="316.416"><g><svg viewBox="0 0 316.416 38.90862896979086" height="38.90862896979086" width="316.416"><g transform="matrix(1,0,0,1,0,0)"><svg width="316.416" viewBox="-0.699999988079071 -26.149999618530273 258.1800231933594 31.75" height="38.90862896979086" data-palette-color="#00ffe0"><path d="M21.15-22L21.15-22Q19.15-22.3 16.88-22.3 14.6-22.3 12.45-22L12.45-22Q13.8-19.7 15.65-18.25 17.5-16.8 20.33-15.38 23.15-13.95 24.93-12.75 26.7-11.55 28.85-8.8 31-6.05 31.55-3.05L31.55-3.05Q29.15 0.05 25.2 2.43 21.25 4.8 17.1 5.6L17.1 5.6Q14.3 5.35 10.03 4.03 5.75 2.7 3.6 2.7 1.45 2.7-0.7 4.05L-0.7 4.05Q0.2 1.5 2.25-2.35L2.25-2.35 2.65-2.35Q5.85-2.35 8.68-1.35 11.5-0.35 13.83 0.65 16.15 1.65 17.57 1.65 19 1.65 19.65 1.45L19.65 1.45Q19.65-1.85 17.6-4L17.6-4Q16.5-5.15 15.73-5.78 14.95-6.4 13.35-7.5L13.35-7.5 12.5-8.1Q9.1-10.45 6.9-12.88 4.7-15.3 3.7-18.85L3.7-18.85Q5.3-22.4 6.85-25L6.85-25Q11.6-26.15 16.7-26.15L16.7-26.15 18.9-26.15Q23.2-26.15 28.75-24.95L28.75-24.95Q27.95-21.65 26.8-19L26.8-19Q22.6-18.7 20.3-18.7L20.3-18.7Q20.75-19.85 21.15-22ZM66.7-20.85L66.7-20.85Q66.7-11.05 64.8 0L64.8 0 52.85 0Q53.65-5.9 53.9-12.7L53.9-12.7Q51.3-14.3 48.1-14.65L48.1-14.65Q47.8-7.3 46.5 0L46.5 0 35.15 0Q35.8-4.9 35.8-11.73 35.8-18.55 34.9-25L34.9-25 48.1-25Q48.2-22.95 48.2-18.9L48.2-18.9Q51.1-18 53.95-16.45L53.95-16.45Q53.95-21.1 53.6-25L53.6-25 66.6-25Q66.7-22.2 66.7-20.85ZM89.5-14.95L89.5-14.95 94.2-14.65Q94.9-14.65 95.25-14.7L95.25-14.7 92.9-10.3 92.45-10.3Q91.5-10.3 89.75-10.83 88-11.35 87.25-11.35L87.25-11.35Q85.2-11.35 84-8.7L84-8.7Q83.8-6.25 83.7-3.8L83.7-3.8Q86.3-3.3 87.8-3.3L87.8-3.3 88.25-3.3Q90.4-3.3 91.67-4.25 92.95-5.2 93.5-7.65L93.5-7.65 99.5-7.4Q98.75-3.1 97.5 0L97.5 0 72.95 0Q71.95-6.75 71.95-13.4 71.95-20.05 72.65-25L72.65-25 99.45-25Q98.55-19.6 97.84-17.4L97.84-17.4Q94.9-17.25 92.45-17.2L92.45-17.2Q92.84-18.35 92.84-19.35L92.84-19.35Q92.84-21.75 89.25-21.75L89.25-21.75Q87.9-21.75 86.25-21.45L86.25-21.45Q85.15-16.7 84.55-13.1L84.55-13.1Q86.55-14.95 89.5-14.95ZM128.64-25L134.59-25Q134.89-19.75 134.89-13.93 134.89-8.1 134.39 0L134.39 0 129.59 0Q119.89-5.2 111.79-14.15L111.79-14.15Q112.19-10.8 112.19-7.28 112.19-3.75 111.94 0L111.94 0 106.09 0Q107.09-6.15 107.09-11.38 107.09-16.6 106.59-19.65L106.59-19.65Q104.59-22.65 103.44-25L103.44-25 117.64-25Q119.74-21.4 123.37-17.57 126.99-13.75 130.29-11.6L130.29-11.6Q130.29-18.9 128.64-25L128.64-25ZM158.84-2.45L158.84-2.45 158.89-4.55Q158.89-8.1 158.29-13L158.29-13 169.09-13Q169.09-5.9 168.39 0L168.39 0Q160.64 1.1 152.34 1.1L152.34 1.1 149.14 1.1Q144.59-0.85 142.04-4.63 139.49-8.4 139.49-12.65L139.49-12.65Q139.49-18.3 144.07-22.23 148.64-26.15 157.44-26.15L157.44-26.15Q162.04-26.15 167.69-24.9L167.69-24.9Q166.84-21.5 165.74-18.9L165.74-18.9Q162.69-18.7 159.19-18.6L159.19-18.6Q159.74-20.3 159.99-21.95L159.99-21.95Q158.39-22.25 156.72-22.25 155.04-22.25 152.74-21.7L152.74-21.7Q151.94-18.3 151.94-15.55L151.94-15.55Q151.94-11.4 153.82-7.78 155.69-4.15 158.84-2.45ZM206.29-0.4L206.29-0.4 206.29 0 194.69 0Q194.49-2.75 193.84-5.9L193.84-5.9Q190.34-2.4 186.84 0L186.84 0 175.19 0Q174.84-2.05 174.84-5.43 174.84-8.8 175.84-12.2L175.84-12.2Q179.44-13.25 182.76-15.75 186.09-18.25 187.59-21.15L187.59-21.15Q186.19-23.35 184.74-25L184.74-25 201.34-25Q206.29-14.15 206.29-0.4ZM192.94-9.55L192.94-9.55Q191.69-13.85 189.54-17.95L189.54-17.95Q187.19-11.05 186.84-4.9L186.84-4.9Q190.54-6.9 192.94-9.55ZM221.89-7.25L221.89-6.25Q221.89-3.4 222.14 0L222.14 0 211.14 0Q209.09-7.95 209.09-16.9L209.09-16.9Q209.09-21.45 209.64-25L209.64-25 236.74-25Q238.19-19.35 238.34-11.55L238.34-11.55Q230.94-8.25 221.89-7.25L221.89-7.25ZM221.94-10.7L221.94-10.7Q225.14-11.1 227.29-12.3L227.29-12.3Q226.49-17.6 222.99-21.7L222.99-21.7Q222.19-16.75 221.94-10.7ZM243.98-25L257.48-25 257.48-23.65Q257.48-10.45 255.83 0L255.83 0 243.83 0Q244.78-4.6 244.78-10.63 244.78-16.65 243.98-25L243.98-25Z" opacity="1" transform="matrix(1,0,0,1,0,0)" fill="#00ffe0" class="undefined-text-0" data-fill-palette-color="primary" id="text-0"></path></svg></g></svg></g></svg></g></svg></g><g></g></svg></g></svg></g><g mask="url(#c54fad65-f92f-4582-9c34-712c2f862923)"><g transform="matrix(0.5702325581395349, 0, 0, 0.5702325581395349, 69.45767441860465, 1)"><svg xmlns="http://www.w3.org/2000/svg" xmlns:xlink="http://www.w3.org/1999/xlink" version="1.1" x="0" y="0" viewBox="31 41 450 430" style="enable-background:new 0 0 512 512;" xml:space="preserve" height="430" width="450" class="icon-none" data-fill-palette-color="accent" id="none"><g fill="#00ffe0" data-fill-palette-color="accent"><g fill="#00ffe0" data-fill-palette-color="accent"><g fill="#00ffe0" data-fill-palette-color="accent"><g fill="#00ffe0" data-fill-palette-color="accent"><path d="M281 471h-75.509c-5.523 0-10-4.478-10-10 0-5.523 4.477-10 10-10H271V351c0-5.523 4.478-10 10-10h50v-44.492c0-5.522 4.478-10 10-10s10 4.478 10 10V351c0 5.522-4.478 10-10 10h-50v100C291 466.522 286.522 471 281 471zM155.491 471H101c-5.523 0-10-4.478-10-10V215.491c0-5.523 4.477-10 10-10s10 4.477 10 10V451h44.491c5.523 0 10 4.477 10 10C165.491 466.522 161.014 471 155.491 471zM371 271h-15.509c-5.522 0-10-4.478-10-10 0-5.523 4.478-10 10-10H361v-70c0-67.29-52.71-120-120-120h-10c-60.924 0-112.157 45.436-119.173 105.688-0.639 5.485-5.606 9.406-11.09 8.776-5.486-0.639-9.415-5.604-8.776-11.09 3.955-33.964 20.121-65.176 45.519-87.886C163.073 53.603 196.286 41 231 41h10c37.62 0 72.839 14.5 99.169 40.831S381 143.379 381 181v80C381 266.522 376.522 271 371 271z" fill="#00ffe0" data-fill-palette-color="accent"></path></g><g fill="#00ffe0" data-fill-palette-color="accent"><path d="M280.991 471c-2.012 0-4.042-0.604-5.804-1.863l-140-100c-4.494-3.21-5.535-9.455-2.325-13.949s9.457-5.536 13.95-2.325l140 100c4.494 3.21 5.535 9.456 2.325 13.95C287.186 469.544 284.111 471 280.991 471z" fill="#00ffe0" data-fill-palette-color="accent"></path></g><g fill="#00ffe0" data-fill-palette-color="accent"><g fill="#00ffe0" data-fill-palette-color="accent"><path d="M221.599 321c-32.71 0-64.007-11.748-88.125-33.078-4.137-3.658-4.524-9.979-0.866-14.115 3.658-4.137 9.978-4.525 14.116-0.866 20.459 18.095 47.05 28.06 74.875 28.06 5.523 0 10 4.477 10 10C231.599 316.522 227.122 321 221.599 321zM221.599 291.934c-26.356 0-51.262-9.803-70.128-27.605-18.933-17.864-29.693-41.777-30.299-67.333-0.131-5.521 4.239-10.103 9.76-10.234 5.53-0.129 10.104 4.239 10.234 9.76 0.985 41.583 37.067 75.412 80.433 75.412 44.358 0 80.445-34.633 80.445-77.204 0-6.866-0.792-13.707-2.354-20.333-1.267-5.376 2.064-10.761 7.439-12.027 5.374-1.265 10.76 2.063 12.027 7.439 1.915 8.128 2.887 16.513 2.887 24.921C322.044 248.328 276.984 291.934 221.599 291.934zM221.599 262.859c-8.71 0-17.215-1.526-25.279-4.538-5.174-1.933-7.802-7.693-5.87-12.867 1.933-5.174 7.693-7.801 12.867-5.87 5.818 2.173 11.969 3.275 18.282 3.275 27.735 0 50.299-21.591 50.299-48.13 0-34.555-29.328-62.668-65.376-62.668-20.489 0-39.407 8.952-51.902 24.56-3.452 4.311-9.746 5.008-14.056 1.557-4.312-3.452-5.009-9.745-1.557-14.056 16.311-20.375 40.919-32.061 67.515-32.061 47.077 0 85.376 37.084 85.376 82.668C291.898 232.297 260.362 262.859 221.599 262.859zM110.701 250.484c-3.832 0-7.487-2.214-9.144-5.941C94.552 228.779 91 212.02 91 194.729c0-61.61 51.823-111.733 115.522-111.733 33.547 0 65.391 14.08 87.368 38.629 3.684 4.115 3.334 10.437-0.781 14.121-4.114 3.684-10.437 3.335-14.121-0.781-18.187-20.317-44.599-31.969-72.465-31.969-52.671 0-95.522 41.151-95.522 91.733 0 14.474 2.972 28.501 8.834 41.691 2.243 5.047-0.03 10.957-5.077 13.199C113.438 250.206 112.058 250.484 110.701 250.484zM221.599 233.795c-22.141 0-40.154-17.525-40.154-39.065 0-13.53 11.25-24.537 25.077-24.537 13.828 0 25.077 11.007 25.077 24.537 0 5.523-4.477 10-10 10s-10-4.477-10-10c0-2.502-2.278-4.537-5.077-4.537s-5.077 2.035-5.077 4.537c0 10.513 9.041 19.065 20.154 19.065 11.108 0 20.146-8.553 20.146-19.065 0-18.528-15.801-33.603-35.223-33.603s-35.223 15.074-35.223 33.603c0 5.757 1.048 11.383 3.115 16.721 1.994 5.15-0.564 10.942-5.714 12.937-5.152 1.994-10.942-0.564-12.937-5.714-2.963-7.651-4.465-15.707-4.465-23.943 0-29.557 24.773-53.603 55.223-53.603s55.222 24.046 55.222 53.603C261.744 216.27 243.735 233.795 221.599 233.795z" fill="#00ffe0" data-fill-palette-color="accent"></path></g></g><g fill="#00ffe0" data-fill-palette-color="accent"><path d="M411 321H221c-5.523 0-10-4.478-10-10 0-5.523 4.477-10 10-10h190c5.522 0 10 4.477 10 10C421 316.522 416.522 321 411 321z" fill="#00ffe0" data-fill-palette-color="accent"></path></g><g fill="#00ffe0" data-fill-palette-color="accent"><path d="M231 61H101c-5.523 0-10-4.477-10-10s4.477-10 10-10h130c5.523 0 10 4.477 10 10S236.523 61 231 61z" fill="#00ffe0" data-fill-palette-color="accent"></path></g><g fill="#00ffe0" data-fill-palette-color="accent"><path d="M71 61.003c-2.63 0-5.21-1.07-7.07-2.93-1.86-1.86-2.93-4.44-2.93-7.07 0-2.64 1.07-5.21 2.93-7.07 1.86-1.87 4.44-2.93 7.07-2.93 2.63 0 5.21 1.06 7.07 2.93 1.86 1.86 2.93 4.43 2.93 7.07 0 2.63-1.07 5.2-2.93 7.07C76.21 59.933 73.63 61.003 71 61.003z" fill="#00ffe0" data-fill-palette-color="accent"></path></g><g fill="#00ffe0" data-fill-palette-color="accent"><path d="M41 61.003c-2.63 0-5.21-1.07-7.07-2.93-1.86-1.86-2.93-4.44-2.93-7.07 0-2.64 1.07-5.21 2.93-7.07 1.86-1.87 4.44-2.93 7.07-2.93 2.63 0 5.21 1.06 7.07 2.93 1.86 1.86 2.93 4.44 2.93 7.07s-1.07 5.21-2.93 7.07S43.63 61.003 41 61.003z" fill="#00ffe0" data-fill-palette-color="accent"></path></g><g fill="#00ffe0" data-fill-palette-color="accent"><path d="M441 321.003c-2.63 0-5.21-1.07-7.07-2.931-1.86-1.859-2.93-4.439-2.93-7.069 0-2.64 1.069-5.21 2.93-7.07 1.86-1.87 4.44-2.93 7.07-2.93s5.21 1.06 7.069 2.93c1.86 1.86 2.931 4.431 2.931 7.07 0 2.63-1.07 5.21-2.931 7.069C446.21 319.933 443.63 321.003 441 321.003z" fill="#00ffe0" data-fill-palette-color="accent"></path></g><g fill="#00ffe0" data-fill-palette-color="accent"><path d="M471 321.003c-2.63 0-5.21-1.07-7.07-2.931-1.86-1.869-2.93-4.439-2.93-7.069s1.069-5.21 2.93-7.08c1.86-1.86 4.44-2.92 7.07-2.92s5.21 1.06 7.069 2.92c1.86 1.87 2.931 4.45 2.931 7.08s-1.07 5.21-2.931 7.069C476.21 319.933 473.63 321.003 471 321.003z" fill="#00ffe0" data-fill-palette-color="accent"></path></g></g></g></g></svg></g></g></svg></g><defs><mask id="f8bce446-8f3c-4e2a-b1c5-7b91b232f0d4"><rect width="640" height="400" fill="white"></rect><rect width="348.05760000000004" height="57.279415955135555" fill="black" x="145.97119999999998" y="171.36029202243222" id="transform-me" transform="matrix(1,0,0,1,-122.24000000000001,-76.4)"></rect></mask><mask id="3b1d026b-6ed0-4369-93fc-2dd399cb1598"><rect width="640" height="400" fill="white"></rect><rect width="348.05760000000004" height="57.279415955135555" fill="black" x="145.97119999999998" y="171.36029202243222" id="transform-me" transform="matrix(1,0,0,1,-122.24000000000001,-76.4)"></rect></mask><mask id="1ad83865-52c9-4f6b-a5c8-1e644c93e03d"><rect width="640" height="400" fill="white"></rect><rect width="348.05760000000004" height="57.279415955135555" fill="black" x="145.97119999999998" y="171.36029202243222" id="transform-me" transform="matrix(1,0,0,1,-122.24000000000001,-76.4)"></rect></mask><mask id="7643a7f2-1c76-4975-85e6-cca290b07b49"><rect width="640" height="400" fill="white"></rect><rect width="348.05760000000004" height="57.279415955135555" fill="black" x="145.97119999999998" y="171.36029202243222" id="transform-me" transform="matrix(1,0,0,1,-122.24000000000001,-76.4)"></rect></mask><mask id="e9d721bb-0282-4879-8c1f-b9c0a0bc5431"><rect width="640" height="400" fill="white"></rect><rect width="348.05760000000004" height="57.279415955135555" fill="black" x="145.97119999999998" y="171.36029202243222" id="transform-me" transform="matrix(1,0,0,1,-122.24000000000001,-76.4)"></rect></mask><mask id="c54fad65-f92f-4582-9c34-712c2f862923"><rect width="640" height="400" fill="white"></rect><rect width="348.05760000000004" height="57.279415955135555" fill="black" x="145.97119999999998" y="171.36029202243222" id="transform-me" transform="matrix(1,0,0,1,-122.24000000000001,-76.4)"></rect></mask></defs></svg><rect width="395.52" height="247.2" fill="none" stroke="none" visibility="hidden"></rect></g></svg></g></svg>